<?xml version="1.0" standalone="no"?>
<!DOCTYPE svg PUBLIC "-//W3C//DTD SVG 20010904//EN"
 "http://www.w3.org/TR/2001/REC-SVG-20010904/DTD/svg10.dtd">
<svg version="1.0" xmlns="http://www.w3.org/2000/svg"
 width="512.000000pt" height="512.000000pt" viewBox="0 0 512.000000 512.000000"
 preserveAspectRatio="xMidYMid meet">
<metadata>
Created by potrace 1.11, written by Peter Selinger 2001-2013
</metadata>
<g transform="translate(0.000000,512.000000) scale(0.100000,-0.100000)"
fill="#000000" stroke="none">
<path d="M2508 4084 c-3 -3 -37 -7 -74 -9 -63 -5 -109 -11 -109 -15 0 -1 -16
-3 -35 -5 -19 -1 -35 -3 -35 -4 0 -2 -7 -4 -15 -6 -8 -2 -28 -6 -45 -10 -39
-8 -59 -13 -65 -16 -3 -1 -9 -3 -15 -4 -5 -1 -23 -7 -40 -14 -16 -7 -42 -15
-57 -18 -16 -3 -28 -9 -28 -13 0 -5 -14 -11 -30 -15 -64 -14 -271 -140 -379
-230 -41 -35 -177 -170 -181 -180 -4 -10 -18 -27 -54 -68 -45 -52 -156 -238
-156 -262 0 -4 -10 -21 -22 -38 -13 -18 -22 -34 -20 -37 1 -3 -3 -18 -9 -35
-7 -16 -13 -34 -14 -40 -2 -5 -11 -32 -20 -58 -9 -27 -17 -57 -18 -68 -1 -10
-4 -19 -8 -19 -4 0 -11 -9 -14 -21 -4 -11 -9 -18 -12 -16 -3 3 -24 -9 -47 -26
-23 -18 -55 -41 -70 -52 -27 -20 -43 -32 -85 -67 -12 -10 -23 -18 -26 -18 -3
0 -13 -8 -24 -17 -10 -10 -33 -31 -52 -47 -183 -153 -349 -321 -440 -446 -22
-30 -46 -62 -53 -71 -7 -8 -21 -31 -32 -50 -10 -19 -22 -36 -25 -39 -13 -11
-48 -88 -42 -94 4 -3 1 -6 -5 -6 -9 0 -21 -22 -28 -52 -1 -5 -3 -11 -4 -15 -1
-5 -2 -11 -1 -15 0 -5 -3 -8 -7 -8 -5 0 -9 -6 -9 -12 0 -7 -6 -32 -12 -56 -7
-23 -9 -47 -6 -52 3 -6 2 -10 -3 -10 -12 0 -12 -152 1 -167 5 -7 6 -13 2 -13
-4 0 -2 -7 5 -15 7 -8 9 -15 5 -15 -4 0 -2 -7 5 -15 7 -8 9 -15 5 -15 -8 0 35
-72 49 -82 6 -4 7 -8 3 -8 -7 0 81 -90 88 -90 2 0 25 -14 50 -31 25 -17 51
-32 58 -33 7 -1 28 -10 47 -19 43 -21 152 -53 205 -62 42 -7 68 -12 73 -15 1
-1 17 -2 35 -2 17 -1 37 -5 44 -10 7 -5 14 -5 18 2 4 6 13 7 23 2 21 -11 392
-9 410 1 7 5 12 3 12 -3 0 -6 5 -8 11 -4 7 4 27 8 44 10 18 1 61 6 96 10 35 4
76 8 92 8 15 1 27 5 27 10 0 4 7 5 16 2 9 -3 21 -3 27 1 6 4 24 8 41 10 30 3
36 4 126 23 111 23 112 23 206 -20 49 -23 97 -46 106 -51 10 -5 22 -9 27 -9 5
0 22 -5 38 -12 41 -17 112 -34 126 -30 4 1 7 -2 7 -8 0 -6 3 -9 8 -9 4 1 9 0
12 -1 3 -1 19 -3 35 -5 17 -2 50 -7 75 -11 25 -4 71 -8 102 -8 32 -1 58 -3 58
-6 0 -9 103 -6 118 3 7 5 12 3 12 -3 0 -6 5 -8 13 -3 6 4 37 8 67 9 30 1 55 2
55 4 0 3 36 9 70 11 17 2 35 6 40 9 6 3 17 6 25 5 8 -1 27 5 43 12 15 7 27 11
27 8 0 -2 23 4 50 15 28 11 50 18 50 15 0 -2 12 2 27 10 15 8 30 12 35 9 4 -3
8 0 8 6 0 6 5 8 10 5 6 -3 10 -1 10 4 0 6 6 11 14 11 17 0 100 42 104 53 2 4
10 7 18 7 14 0 175 106 229 150 42 36 186 181 213 216 52 68 159 234 182 285
14 29 29 57 33 60 5 3 8 9 8 13 -1 8 3 20 34 104 15 39 28 78 29 85 10 52 19
77 30 77 6 0 18 9 26 19 7 11 17 18 22 15 4 -3 11 2 14 10 3 9 12 16 20 16 8
0 14 4 14 8 0 4 12 15 28 24 15 9 37 26 50 38 12 11 22 18 22 15 0 -3 8 3 19
13 10 9 35 31 56 47 38 29 92 76 169 145 70 62 156 151 156 161 0 5 7 9 15 9
8 0 15 4 15 8 0 5 25 35 55 68 30 32 57 67 61 77 3 9 10 15 15 12 5 -4 9 -1 9
5 0 12 99 161 113 171 5 3 8 9 8 13 -1 3 6 21 16 39 9 17 18 37 19 42 1 6 9
26 17 45 8 19 15 37 15 40 1 3 6 19 12 35 19 48 21 65 24 163 2 51 -1 95 -5
98 -5 3 -9 14 -9 25 0 33 -56 131 -102 179 -57 58 -111 93 -218 138 -49 20
-65 25 -88 28 -13 2 -30 8 -38 15 -8 6 -14 9 -14 6 0 -3 -26 1 -57 8 -32 8
-94 17 -138 21 -98 10 -434 9 -530 -1 -38 -4 -86 -9 -105 -10 -19 -2 -35 -4
-35 -5 0 -1 -16 -3 -35 -6 -79 -10 -95 -13 -95 -14 0 -2 -36 -9 -85 -16 -25
-3 -48 -8 -51 -10 -3 -2 -21 -6 -40 -10 -74 -15 -112 -8 -212 38 -95 45 -131
59 -152 62 -5 1 -16 5 -22 9 -7 5 -13 6 -13 3 0 -3 -12 1 -26 9 -15 7 -33 11
-40 8 -8 -3 -20 0 -27 6 -8 6 -33 13 -58 16 -24 3 -57 7 -74 10 -16 2 -54 7
-84 10 -29 3 -57 8 -62 11 -5 3 -9 0 -9 -6 0 -7 -6 -8 -18 -1 -13 7 -23 6 -32
-2 -10 -9 -14 -9 -17 0 -3 10 -10 10 -25 2 -15 -8 -19 -8 -14 0 7 12 3 15 -6
5z m1382 -484 c0 -3 19 -7 43 -9 23 -1 50 -3 60 -4 9 -1 17 -5 17 -10 0 -5 9
-7 20 -4 10 3 20 1 22 -5 2 -5 10 -10 19 -11 29 -5 86 -45 113 -79 35 -47 43
-110 22 -181 -17 -57 -51 -126 -71 -139 -6 -5 -6 -8 0 -8 5 0 -1 -7 -13 -16
-12 -8 -22 -21 -22 -27 0 -7 -19 -32 -42 -55 -44 -48 -47 -47 -68 22 -7 22
-32 83 -56 134 -24 51 -45 96 -46 100 -1 4 -10 16 -20 26 -10 11 -18 23 -18
28 0 4 -12 26 -27 47 -16 21 -35 49 -43 61 -17 25 -38 50 -80 97 -16 17 -25
33 -20 35 17 5 210 3 210 -2z m-2845 -1181 c2 -9 6 -40 9 -70 7 -56 13 -94 16
-94 3 0 11 -38 14 -66 2 -14 9 -35 15 -48 7 -12 11 -25 8 -27 -3 -3 8 -35 23
-72 16 -36 26 -70 24 -74 -3 -4 -1 -8 4 -8 5 0 15 -18 22 -40 7 -22 17 -40 22
-40 4 0 8 -9 8 -19 0 -11 4 -21 9 -23 4 -1 12 -14 16 -26 l7 -24 -79 6 c-43 3
-93 6 -110 6 -18 0 -33 4 -33 9 0 5 -8 7 -19 4 -10 -3 -22 0 -25 6 -4 6 -15
11 -25 11 -21 0 -71 22 -71 33 0 4 -5 7 -10 7 -14 0 -43 28 -65 63 -23 36 -27
116 -8 179 13 45 74 150 108 187 8 9 38 42 68 73 30 32 51 61 48 64 -3 4 0 5
8 2 8 -2 15 -11 16 -19z"/>
</g>
</svg>
